<?xml version="1.0" encoding="UTF-8" standalone="no"?>
<!DOCTYPE svg PUBLIC "-//W3C//DTD SVG 1.1//EN"
 "http://www.w3.org/Graphics/SVG/1.1/DTD/svg11.dtd">
<!-- Generated by graphviz version 15.1.0 (20260618.0150)
 -->
<!-- Title: PackageDependencyGraph Pages: 1 -->
<svg width="923pt" height="294pt"
 viewBox="0.00 0.00 923.00 294.00" xmlns="http://www.w3.org/2000/svg" xmlns:xlink="http://www.w3.org/1999/xlink">
<g id="graph0" class="graph" transform="scale(1 1) rotate(0) translate(4 289.52)">
<title>PackageDependencyGraph</title>
<polygon fill="white" stroke="none" points="-4,4 -4,-289.52 919,-289.52 919,4 -4,4"/>
<!-- App -->
<g id="node1" class="node">
<title>App</title>
<path fill="#dbeafe" stroke="#2563eb" stroke-width="1.5" d="M413,-285.52C413,-285.52 257,-285.52 257,-285.52 251,-285.52 245,-279.52 245,-273.52 245,-273.52 245,-245.68 245,-245.68 245,-239.68 251,-233.68 257,-233.68 257,-233.68 413,-233.68 413,-233.68 419,-233.68 425,-239.68 425,-245.68 425,-245.68 425,-273.52 425,-273.52 425,-279.52 419,-285.52 413,-285.52"/>
<text xml:space="preserve" text-anchor="start" x="321.12" y="-258.85" font-family="Apple SD Gothic Neo" font-weight="bold" font-size="15.00" fill="#0f172a">App</text>
<text xml:space="preserve" text-anchor="start" x="281" y="-248.6" font-family="Apple SD Gothic Neo" font-size="10.00" fill="#0f172a">Coordination · Navigation</text>
</g>
<!-- Composition -->
<g id="node2" class="node">
<title>Composition</title>
<path fill="#ede9fe" stroke="#7c3aed" stroke-width="1.5" d="M225,-168.68C225,-168.68 69,-168.68 69,-168.68 63,-168.68 57,-162.68 57,-156.68 57,-156.68 57,-128.84 57,-128.84 57,-122.84 63,-116.84 69,-116.84 69,-116.84 225,-116.84 225,-116.84 231,-116.84 237,-122.84 237,-128.84 237,-128.84 237,-156.68 237,-156.68 237,-162.68 231,-168.68 225,-168.68"/>
<text xml:space="preserve" text-anchor="start" x="105" y="-142.01" font-family="Apple SD Gothic Neo" font-weight="bold" font-size="15.00" fill="#0f172a">Composition</text>
<text xml:space="preserve" text-anchor="start" x="109.88" y="-131.76" font-family="Apple SD Gothic Neo" font-size="10.00" fill="#0f172a">Adapters · Wiring</text>
</g>
<!-- App&#45;&gt;Composition -->
<g id="edge2" class="edge">
<title>App&#45;&gt;Composition</title>
<path fill="none" stroke="#475569" stroke-width="1.4" d="M290,-232.96C290,-196.09 290,-134 290,-134 290,-134 247.18,-134 247.18,-134"/>
<polygon fill="#475569" stroke="#475569" stroke-width="1.4" points="247.18,-131.38 239.68,-134 247.18,-136.63 247.18,-131.38"/>
</g>
<!-- Feature -->
<g id="node3" class="node">
<title>Feature</title>
<path fill="#ede9fe" stroke="#7c3aed" stroke-width="1.5" d="M601,-168.68C601,-168.68 445,-168.68 445,-168.68 439,-168.68 433,-162.68 433,-156.68 433,-156.68 433,-128.84 433,-128.84 433,-122.84 439,-116.84 445,-116.84 445,-116.84 601,-116.84 601,-116.84 607,-116.84 613,-122.84 613,-128.84 613,-128.84 613,-156.68 613,-156.68 613,-162.68 607,-168.68 601,-168.68"/>
<text xml:space="preserve" text-anchor="start" x="496.75" y="-142.01" font-family="Apple SD Gothic Neo" font-weight="bold" font-size="15.00" fill="#0f172a">Feature</text>
<text xml:space="preserve" text-anchor="start" x="482.88" y="-131.76" font-family="Apple SD Gothic Neo" font-size="10.00" fill="#0f172a">TCA · Presentation</text>
</g>
<!-- App&#45;&gt;Feature -->
<g id="edge1" class="edge">
<title>App&#45;&gt;Feature</title>
<path fill="none" stroke="#475569" stroke-width="1.4" d="M380,-233.03C380,-200.88 380,-151 380,-151 380,-151 422.82,-151 422.82,-151"/>
<polygon fill="#475569" stroke="#475569" stroke-width="1.4" points="422.82,-153.63 430.32,-151 422.82,-148.38 422.82,-153.63"/>
</g>
<!-- Domain -->
<g id="node4" class="node">
<title>Domain</title>
<path fill="#d1fae5" stroke="#059669" stroke-width="1.5" d="M413,-51.84C413,-51.84 257,-51.84 257,-51.84 251,-51.84 245,-45.84 245,-39.84 245,-39.84 245,-12 245,-12 245,-6 251,0 257,0 257,0 413,0 413,0 419,0 425,-6 425,-12 425,-12 425,-39.84 425,-39.84 425,-45.84 419,-51.84 413,-51.84"/>
<text xml:space="preserve" text-anchor="start" x="309.5" y="-25.17" font-family="Apple SD Gothic Neo" font-weight="bold" font-size="15.00" fill="#0f172a">Domain</text>
<text xml:space="preserve" text-anchor="start" x="303.12" y="-14.92" font-family="Apple SD Gothic Neo" font-size="10.00" fill="#0f172a">Business Rules</text>
</g>
<!-- App&#45;&gt;Domain -->
<g id="edge3" class="edge">
<title>App&#45;&gt;Domain</title>
<path fill="none" stroke="#475569" stroke-width="1.4" d="M335,-233.25C335,-233.25 335,-62.15 335,-62.15"/>
<polygon fill="#475569" stroke="#475569" stroke-width="1.4" points="337.63,-62.15 335,-54.65 332.38,-62.15 337.63,-62.15"/>
</g>
<!-- Composition&#45;&gt;Domain -->
<g id="edge6" class="edge">
<title>Composition&#45;&gt;Domain</title>
<path fill="none" stroke="#475569" stroke-width="1.4" d="M208.5,-116.27C208.5,-81.82 208.5,-26 208.5,-26 208.5,-26 234.79,-26 234.79,-26"/>
<polygon fill="#475569" stroke="#475569" stroke-width="1.4" points="234.79,-28.63 242.29,-26 234.79,-23.38 234.79,-28.63"/>
</g>
<!-- Data -->
<g id="node5" class="node">
<title>Data</title>
<path fill="#fef3c7" stroke="#d97706" stroke-width="1.5" d="M168,-51.84C168,-51.84 12,-51.84 12,-51.84 6,-51.84 0,-45.84 0,-39.84 0,-39.84 0,-12 0,-12 0,-6 6,0 12,0 12,0 168,0 168,0 174,0 180,-6 180,-12 180,-12 180,-39.84 180,-39.84 180,-45.84 174,-51.84 168,-51.84"/>
<text xml:space="preserve" text-anchor="start" x="74.25" y="-25.17" font-family="Apple SD Gothic Neo" font-weight="bold" font-size="15.00" fill="#0f172a">Data</text>
<text xml:space="preserve" text-anchor="start" x="51" y="-14.92" font-family="Apple SD Gothic Neo" font-size="10.00" fill="#0f172a">Data Management</text>
</g>
<!-- Composition&#45;&gt;Data -->
<g id="edge7" class="edge">
<title>Composition&#45;&gt;Data</title>
<path fill="none" stroke="#475569" stroke-width="1.4" d="M118.5,-116.25C118.5,-116.25 118.5,-61.95 118.5,-61.95"/>
<polygon fill="#475569" stroke="#475569" stroke-width="1.4" points="121.13,-61.95 118.5,-54.45 115.88,-61.95 121.13,-61.95"/>
</g>
<!-- Feature&#45;&gt;Domain -->
<g id="edge4" class="edge">
<title>Feature&#45;&gt;Domain</title>
<path fill="none" stroke="#475569" stroke-width="1.4" d="M461.5,-116.27C461.5,-81.82 461.5,-26 461.5,-26 461.5,-26 435.21,-26 435.21,-26"/>
<polygon fill="#475569" stroke="#475569" stroke-width="1.4" points="435.21,-23.38 427.71,-26 435.21,-28.63 435.21,-23.38"/>
</g>
<!-- UI -->
<g id="node7" class="node">
<title>UI</title>
<path fill="#dbeafe" stroke="#2563eb" stroke-width="1.5" d="M658,-51.84C658,-51.84 502,-51.84 502,-51.84 496,-51.84 490,-45.84 490,-39.84 490,-39.84 490,-12 490,-12 490,-6 496,0 502,0 502,0 658,0 658,0 664,0 670,-6 670,-12 670,-12 670,-39.84 670,-39.84 670,-45.84 664,-51.84 658,-51.84"/>
<text xml:space="preserve" text-anchor="start" x="572.5" y="-25.17" font-family="Apple SD Gothic Neo" font-weight="bold" font-size="15.00" fill="#0f172a">UI</text>
<text xml:space="preserve" text-anchor="start" x="548.12" y="-14.92" font-family="Apple SD Gothic Neo" font-size="10.00" fill="#0f172a">Design System</text>
</g>
<!-- Feature&#45;&gt;UI -->
<g id="edge5" class="edge">
<title>Feature&#45;&gt;UI</title>
<path fill="none" stroke="#475569" stroke-width="1.4" d="M551.5,-116.25C551.5,-116.25 551.5,-61.95 551.5,-61.95"/>
<polygon fill="#475569" stroke="#475569" stroke-width="1.4" points="554.13,-61.95 551.5,-54.45 548.88,-61.95 554.13,-61.95"/>
</g>
<!-- Infrastructure -->
<g id="node6" class="node">
<title>Infrastructure</title>
<path fill="#dbeafe" stroke="#2563eb" stroke-width="1.5" d="M903,-51.84C903,-51.84 747,-51.84 747,-51.84 741,-51.84 735,-45.84 735,-39.84 735,-39.84 735,-12 735,-12 735,-6 741,0 747,0 747,0 903,0 903,0 909,0 915,-6 915,-12 915,-12 915,-39.84 915,-39.84 915,-45.84 909,-51.84 903,-51.84"/>
<text xml:space="preserve" text-anchor="start" x="778.12" y="-25.17" font-family="Apple SD Gothic Neo" font-weight="bold" font-size="15.00" fill="#0f172a">Infrastructure</text>
<text xml:space="preserve" text-anchor="start" x="792.75" y="-14.92" font-family="Apple SD Gothic Neo" font-size="10.00" fill="#0f172a">Technology API</text>
</g>
</g>
</svg>
