<svg preserveAspectRatio="none" overflow="visible" style="display: block;" width="10" height="10" viewBox="0 0 10 10" fill="none" xmlns="http://www.w3.org/2000/svg">
<path id="Icon (Stroke)" d="M8.62097 1.91953C8.62097 1.84861 8.60685 1.77795 8.57972 1.71242C8.55257 1.64695 8.51281 1.58742 8.46269 1.53731C8.41258 1.48719 8.35305 1.44743 8.28758 1.42029C8.22205 1.39314 8.15139 1.37903 8.08047 1.37903C8.00968 1.37907 7.93961 1.39321 7.8742 1.42029C7.80875 1.4474 7.7492 1.48723 7.69909 1.53731L1.95817 7.27738L1.67193 8.32723L2.72178 8.04099L8.46269 2.30091C8.51277 2.2508 8.5526 2.19125 8.57972 2.1258C8.60679 2.06039 8.62093 1.99032 8.62097 1.91953ZM10 1.91953C9.99997 2.17143 9.95072 2.42093 9.85435 2.65367C9.75789 2.88655 9.61585 3.09844 9.43761 3.27667L3.56873 9.1464C3.48386 9.23127 3.37807 9.29246 3.26227 9.32404L0.871279 9.97567C0.632502 10.0408 0.376976 9.97304 0.201968 9.79803C0.0269609 9.62302 -0.0407936 9.3675 0.0243275 9.12872L0.675958 6.73773L0.705425 6.65269C0.739948 6.5703 0.790029 6.49485 0.853599 6.43127L6.72333 0.562389C6.90156 0.384153 7.11345 0.24211 7.34633 0.145649C7.57906 0.0492809 7.82857 3.48503e-05 8.08047 0C8.33253 0 8.58257 0.0491881 8.81545 0.145649C9.0483 0.242109 9.25939 0.384165 9.43761 0.562389C9.61583 0.740613 9.75789 0.951696 9.85435 1.18455C9.95081 1.41743 10 1.66747 10 1.91953Z" fill="white"/>
</svg>
